<mxfile host="app.diagrams.net" agent="Mozilla/5.0 (Macintosh; Intel Mac OS X 10.15; rv:143.0) Gecko/20100101 Firefox/143.0" version="28.1.2">
  <diagram name="Page-1" id="u1YwF5gIARL7UAbkg5wj">
    <mxGraphModel dx="1426" dy="919" grid="1" gridSize="10" guides="1" tooltips="1" connect="1" arrows="1" fold="1" page="1" pageScale="1" pageWidth="850" pageHeight="1100" math="0" shadow="0">
      <root>
        <mxCell id="0" />
        <mxCell id="1" parent="0" />
        <mxCell id="ZdCM_eY7NvL7YCv6Zc3t-2" value="&lt;div&gt;Super Admin&lt;/div&gt;" style="shape=umlActor;verticalLabelPosition=bottom;verticalAlign=top;html=1;outlineConnect=0;fillColor=light-dark(#FFFFFF,#FF300E);" parent="1" vertex="1">
          <mxGeometry x="110" y="60" width="40" height="80" as="geometry" />
        </mxCell>
        <mxCell id="CgEE7nKXYf7efSVyKvS5-13" style="edgeStyle=orthogonalEdgeStyle;rounded=0;orthogonalLoop=1;jettySize=auto;html=1;entryX=0.5;entryY=1;entryDx=0;entryDy=0;" parent="1" source="ZdCM_eY7NvL7YCv6Zc3t-7" target="CgEE7nKXYf7efSVyKvS5-10" edge="1">
          <mxGeometry relative="1" as="geometry">
            <Array as="points">
              <mxPoint x="410" y="180" />
              <mxPoint x="390" y="180" />
            </Array>
          </mxGeometry>
        </mxCell>
        <mxCell id="ZdCM_eY7NvL7YCv6Zc3t-7" value="HR Payroll" style="ellipse;whiteSpace=wrap;html=1;" parent="1" vertex="1">
          <mxGeometry x="365" y="240" width="90" height="50" as="geometry" />
        </mxCell>
        <mxCell id="CgEE7nKXYf7efSVyKvS5-5" style="edgeStyle=orthogonalEdgeStyle;rounded=0;orthogonalLoop=1;jettySize=auto;html=1;" parent="1" source="ZdCM_eY7NvL7YCv6Zc3t-8" target="CgEE7nKXYf7efSVyKvS5-3" edge="1">
          <mxGeometry relative="1" as="geometry" />
        </mxCell>
        <mxCell id="ZdCM_eY7NvL7YCv6Zc3t-8" value="&lt;div&gt;Faculty&lt;/div&gt;" style="shape=umlActor;verticalLabelPosition=bottom;verticalAlign=top;html=1;outlineConnect=0;" parent="1" vertex="1">
          <mxGeometry x="160" y="420" width="30" height="60" as="geometry" />
        </mxCell>
        <mxCell id="ZdCM_eY7NvL7YCv6Zc3t-9" value="Parent" style="shape=umlActor;verticalLabelPosition=bottom;verticalAlign=top;html=1;outlineConnect=0;" parent="1" vertex="1">
          <mxGeometry x="120" y="730" width="30" height="60" as="geometry" />
        </mxCell>
        <mxCell id="ZdCM_eY7NvL7YCv6Zc3t-12" value="Student" style="shape=umlActor;verticalLabelPosition=bottom;verticalAlign=top;html=1;outlineConnect=0;" parent="1" vertex="1">
          <mxGeometry x="120" y="630" width="30" height="60" as="geometry" />
        </mxCell>
        <mxCell id="CgEE7nKXYf7efSVyKvS5-4" value="" style="edgeStyle=orthogonalEdgeStyle;rounded=0;orthogonalLoop=1;jettySize=auto;html=1;" parent="1" source="ZdCM_eY7NvL7YCv6Zc3t-13" target="CgEE7nKXYf7efSVyKvS5-3" edge="1">
          <mxGeometry relative="1" as="geometry" />
        </mxCell>
        <mxCell id="ZdCM_eY7NvL7YCv6Zc3t-13" value="Staff" style="shape=umlActor;verticalLabelPosition=bottom;verticalAlign=top;html=1;outlineConnect=0;" parent="1" vertex="1">
          <mxGeometry x="60" y="370" width="30" height="60" as="geometry" />
        </mxCell>
        <mxCell id="CgEE7nKXYf7efSVyKvS5-3" value="Employee" style="shape=umlActor;verticalLabelPosition=bottom;verticalAlign=top;html=1;outlineConnect=0;" parent="1" vertex="1">
          <mxGeometry x="110" y="240" width="30" height="60" as="geometry" />
        </mxCell>
        <mxCell id="CgEE7nKXYf7efSVyKvS5-7" value="" style="endArrow=none;html=1;rounded=0;entryX=0;entryY=0.5;entryDx=0;entryDy=0;exitX=1;exitY=0.3333333333333333;exitDx=0;exitDy=0;exitPerimeter=0;" parent="1" source="CgEE7nKXYf7efSVyKvS5-3" target="ZdCM_eY7NvL7YCv6Zc3t-7" edge="1">
          <mxGeometry width="50" height="50" relative="1" as="geometry">
            <mxPoint x="230" y="300" as="sourcePoint" />
            <mxPoint x="280" y="250" as="targetPoint" />
          </mxGeometry>
        </mxCell>
        <mxCell id="ep3fy5VUL9QXkwdNC3nI-13" style="edgeStyle=orthogonalEdgeStyle;rounded=0;orthogonalLoop=1;jettySize=auto;html=1;" edge="1" parent="1" source="CgEE7nKXYf7efSVyKvS5-8">
          <mxGeometry relative="1" as="geometry">
            <mxPoint x="390" y="140" as="targetPoint" />
            <Array as="points">
              <mxPoint x="520" y="515" />
              <mxPoint x="520" y="180" />
              <mxPoint x="390" y="180" />
            </Array>
          </mxGeometry>
        </mxCell>
        <mxCell id="CgEE7nKXYf7efSVyKvS5-8" value="Academics" style="ellipse;whiteSpace=wrap;html=1;" parent="1" vertex="1">
          <mxGeometry x="365" y="490" width="90" height="50" as="geometry" />
        </mxCell>
        <mxCell id="CgEE7nKXYf7efSVyKvS5-9" value="" style="endArrow=none;html=1;rounded=0;entryX=0;entryY=0.5;entryDx=0;entryDy=0;exitX=1;exitY=0.3333333333333333;exitDx=0;exitDy=0;exitPerimeter=0;" parent="1" source="ZdCM_eY7NvL7YCv6Zc3t-8" target="CgEE7nKXYf7efSVyKvS5-8" edge="1">
          <mxGeometry width="50" height="50" relative="1" as="geometry">
            <mxPoint x="400" y="490" as="sourcePoint" />
            <mxPoint x="450" y="440" as="targetPoint" />
          </mxGeometry>
        </mxCell>
        <mxCell id="CgEE7nKXYf7efSVyKvS5-10" value="Institute Level Management" style="ellipse;whiteSpace=wrap;html=1;" parent="1" vertex="1">
          <mxGeometry x="330" y="60" width="120" height="80" as="geometry" />
        </mxCell>
        <mxCell id="CgEE7nKXYf7efSVyKvS5-12" value="" style="endArrow=none;html=1;rounded=0;entryX=0;entryY=0.5;entryDx=0;entryDy=0;exitX=1;exitY=0.3333333333333333;exitDx=0;exitDy=0;exitPerimeter=0;" parent="1" source="ZdCM_eY7NvL7YCv6Zc3t-2" target="CgEE7nKXYf7efSVyKvS5-10" edge="1">
          <mxGeometry width="50" height="50" relative="1" as="geometry">
            <mxPoint x="240" y="125" as="sourcePoint" />
            <mxPoint x="290" y="75" as="targetPoint" />
          </mxGeometry>
        </mxCell>
        <mxCell id="CgEE7nKXYf7efSVyKvS5-16" style="edgeStyle=orthogonalEdgeStyle;rounded=0;orthogonalLoop=1;jettySize=auto;html=1;" parent="1" source="CgEE7nKXYf7efSVyKvS5-15" target="CgEE7nKXYf7efSVyKvS5-10" edge="1">
          <mxGeometry relative="1" as="geometry">
            <Array as="points">
              <mxPoint x="520" y="335" />
              <mxPoint x="520" y="180" />
              <mxPoint x="390" y="180" />
            </Array>
          </mxGeometry>
        </mxCell>
        <mxCell id="CgEE7nKXYf7efSVyKvS5-15" value="Communications" style="ellipse;whiteSpace=wrap;html=1;" parent="1" vertex="1">
          <mxGeometry x="360" y="310" width="100" height="50" as="geometry" />
        </mxCell>
        <mxCell id="ep3fy5VUL9QXkwdNC3nI-41" style="edgeStyle=orthogonalEdgeStyle;rounded=0;orthogonalLoop=1;jettySize=auto;html=1;" edge="1" parent="1" source="ep3fy5VUL9QXkwdNC3nI-3">
          <mxGeometry relative="1" as="geometry">
            <mxPoint x="390" y="150" as="targetPoint" />
            <Array as="points">
              <mxPoint x="520" y="715" />
              <mxPoint x="520" y="180" />
              <mxPoint x="390" y="180" />
            </Array>
          </mxGeometry>
        </mxCell>
        <mxCell id="ep3fy5VUL9QXkwdNC3nI-3" value="Fees Payment" style="ellipse;whiteSpace=wrap;html=1;" vertex="1" parent="1">
          <mxGeometry x="365" y="730" width="90" height="50" as="geometry" />
        </mxCell>
        <mxCell id="ep3fy5VUL9QXkwdNC3nI-33" style="edgeStyle=orthogonalEdgeStyle;rounded=0;orthogonalLoop=1;jettySize=auto;html=1;entryX=0.5;entryY=1;entryDx=0;entryDy=0;" edge="1" parent="1" source="ep3fy5VUL9QXkwdNC3nI-5" target="CgEE7nKXYf7efSVyKvS5-10">
          <mxGeometry relative="1" as="geometry">
            <Array as="points">
              <mxPoint x="520" y="575" />
              <mxPoint x="520" y="180" />
              <mxPoint x="390" y="180" />
            </Array>
          </mxGeometry>
        </mxCell>
        <mxCell id="ep3fy5VUL9QXkwdNC3nI-5" value="&lt;div&gt;Transporation&lt;/div&gt;" style="ellipse;whiteSpace=wrap;html=1;" vertex="1" parent="1">
          <mxGeometry x="365" y="550" width="90" height="50" as="geometry" />
        </mxCell>
        <mxCell id="ep3fy5VUL9QXkwdNC3nI-34" style="edgeStyle=orthogonalEdgeStyle;rounded=0;orthogonalLoop=1;jettySize=auto;html=1;" edge="1" parent="1" source="ep3fy5VUL9QXkwdNC3nI-6">
          <mxGeometry relative="1" as="geometry">
            <mxPoint x="390" y="150" as="targetPoint" />
            <Array as="points">
              <mxPoint x="520" y="635" />
              <mxPoint x="520" y="180" />
              <mxPoint x="390" y="180" />
            </Array>
          </mxGeometry>
        </mxCell>
        <mxCell id="ep3fy5VUL9QXkwdNC3nI-6" value="Hostel" style="ellipse;whiteSpace=wrap;html=1;" vertex="1" parent="1">
          <mxGeometry x="365" y="610" width="90" height="50" as="geometry" />
        </mxCell>
        <mxCell id="ep3fy5VUL9QXkwdNC3nI-21" style="edgeStyle=orthogonalEdgeStyle;rounded=0;orthogonalLoop=1;jettySize=auto;html=1;entryX=0.5;entryY=1;entryDx=0;entryDy=0;" edge="1" parent="1" source="ep3fy5VUL9QXkwdNC3nI-7" target="CgEE7nKXYf7efSVyKvS5-10">
          <mxGeometry relative="1" as="geometry">
            <Array as="points">
              <mxPoint x="520" y="455" />
              <mxPoint x="520" y="180" />
              <mxPoint x="390" y="180" />
            </Array>
          </mxGeometry>
        </mxCell>
        <mxCell id="ep3fy5VUL9QXkwdNC3nI-7" value="Fees &amp;amp; Finance" style="ellipse;whiteSpace=wrap;html=1;" vertex="1" parent="1">
          <mxGeometry x="365" y="430" width="90" height="50" as="geometry" />
        </mxCell>
        <mxCell id="ep3fy5VUL9QXkwdNC3nI-20" style="edgeStyle=orthogonalEdgeStyle;rounded=0;orthogonalLoop=1;jettySize=auto;html=1;exitX=1;exitY=0.5;exitDx=0;exitDy=0;" edge="1" parent="1" source="ep3fy5VUL9QXkwdNC3nI-8">
          <mxGeometry relative="1" as="geometry">
            <mxPoint x="425" y="455" as="sourcePoint" />
            <mxPoint x="390" y="140" as="targetPoint" />
            <Array as="points">
              <mxPoint x="520" y="395" />
              <mxPoint x="520" y="180" />
              <mxPoint x="390" y="180" />
            </Array>
          </mxGeometry>
        </mxCell>
        <mxCell id="ep3fy5VUL9QXkwdNC3nI-8" value="Reports" style="ellipse;whiteSpace=wrap;html=1;" vertex="1" parent="1">
          <mxGeometry x="365" y="370" width="90" height="50" as="geometry" />
        </mxCell>
        <mxCell id="ep3fy5VUL9QXkwdNC3nI-10" style="edgeStyle=orthogonalEdgeStyle;rounded=0;orthogonalLoop=1;jettySize=auto;html=1;" edge="1" parent="1" source="ep3fy5VUL9QXkwdNC3nI-9" target="CgEE7nKXYf7efSVyKvS5-3">
          <mxGeometry relative="1" as="geometry" />
        </mxCell>
        <mxCell id="ep3fy5VUL9QXkwdNC3nI-9" value="Admin Staff" style="shape=umlActor;verticalLabelPosition=bottom;verticalAlign=top;html=1;outlineConnect=0;" vertex="1" parent="1">
          <mxGeometry x="160" y="310" width="30" height="60" as="geometry" />
        </mxCell>
        <mxCell id="ep3fy5VUL9QXkwdNC3nI-18" value="" style="endArrow=none;html=1;rounded=0;exitX=1;exitY=0.3333333333333333;exitDx=0;exitDy=0;exitPerimeter=0;entryX=0;entryY=0.5;entryDx=0;entryDy=0;" edge="1" parent="1" source="ep3fy5VUL9QXkwdNC3nI-9" target="CgEE7nKXYf7efSVyKvS5-15">
          <mxGeometry width="50" height="50" relative="1" as="geometry">
            <mxPoint x="310" y="380" as="sourcePoint" />
            <mxPoint x="360" y="330" as="targetPoint" />
          </mxGeometry>
        </mxCell>
        <mxCell id="ep3fy5VUL9QXkwdNC3nI-19" value="" style="endArrow=none;html=1;rounded=0;entryX=0;entryY=0.5;entryDx=0;entryDy=0;" edge="1" parent="1" source="ZdCM_eY7NvL7YCv6Zc3t-8" target="CgEE7nKXYf7efSVyKvS5-15">
          <mxGeometry width="50" height="50" relative="1" as="geometry">
            <mxPoint x="200" y="340" as="sourcePoint" />
            <mxPoint x="370" y="345" as="targetPoint" />
          </mxGeometry>
        </mxCell>
        <mxCell id="ep3fy5VUL9QXkwdNC3nI-23" value="" style="endArrow=none;html=1;rounded=0;entryX=0;entryY=0.5;entryDx=0;entryDy=0;" edge="1" parent="1" target="ep3fy5VUL9QXkwdNC3nI-8">
          <mxGeometry width="50" height="50" relative="1" as="geometry">
            <mxPoint x="190" y="330" as="sourcePoint" />
            <mxPoint x="373" y="415" as="targetPoint" />
            <Array as="points" />
          </mxGeometry>
        </mxCell>
        <mxCell id="ep3fy5VUL9QXkwdNC3nI-24" value="" style="endArrow=none;html=1;rounded=0;entryX=0;entryY=0.5;entryDx=0;entryDy=0;" edge="1" parent="1" target="ep3fy5VUL9QXkwdNC3nI-7">
          <mxGeometry width="50" height="50" relative="1" as="geometry">
            <mxPoint x="190" y="330" as="sourcePoint" />
            <mxPoint x="383" y="425" as="targetPoint" />
            <Array as="points" />
          </mxGeometry>
        </mxCell>
        <mxCell id="ep3fy5VUL9QXkwdNC3nI-27" style="edgeStyle=orthogonalEdgeStyle;rounded=0;orthogonalLoop=1;jettySize=auto;html=1;" edge="1" parent="1" source="ep3fy5VUL9QXkwdNC3nI-25" target="CgEE7nKXYf7efSVyKvS5-3">
          <mxGeometry relative="1" as="geometry" />
        </mxCell>
        <mxCell id="ep3fy5VUL9QXkwdNC3nI-25" value="&lt;div&gt;Warden&lt;/div&gt;" style="shape=umlActor;verticalLabelPosition=bottom;verticalAlign=top;html=1;outlineConnect=0;" vertex="1" parent="1">
          <mxGeometry x="160" y="510" width="30" height="60" as="geometry" />
        </mxCell>
        <mxCell id="ep3fy5VUL9QXkwdNC3nI-28" style="edgeStyle=orthogonalEdgeStyle;rounded=0;orthogonalLoop=1;jettySize=auto;html=1;" edge="1" parent="1" source="ep3fy5VUL9QXkwdNC3nI-26" target="CgEE7nKXYf7efSVyKvS5-3">
          <mxGeometry relative="1" as="geometry" />
        </mxCell>
        <mxCell id="ep3fy5VUL9QXkwdNC3nI-26" value="Transport Admin" style="shape=umlActor;verticalLabelPosition=bottom;verticalAlign=top;html=1;outlineConnect=0;" vertex="1" parent="1">
          <mxGeometry x="60" y="460" width="30" height="60" as="geometry" />
        </mxCell>
        <mxCell id="ep3fy5VUL9QXkwdNC3nI-31" value="" style="endArrow=none;html=1;rounded=0;entryX=0;entryY=0.5;entryDx=0;entryDy=0;exitX=1;exitY=0.3333333333333333;exitDx=0;exitDy=0;exitPerimeter=0;" edge="1" parent="1" source="ep3fy5VUL9QXkwdNC3nI-26" target="ep3fy5VUL9QXkwdNC3nI-5">
          <mxGeometry width="50" height="50" relative="1" as="geometry">
            <mxPoint x="270" y="650" as="sourcePoint" />
            <mxPoint x="320" y="600" as="targetPoint" />
            <Array as="points">
              <mxPoint x="240" y="530" />
            </Array>
          </mxGeometry>
        </mxCell>
        <mxCell id="ep3fy5VUL9QXkwdNC3nI-32" value="" style="endArrow=none;html=1;rounded=0;entryX=0;entryY=0.5;entryDx=0;entryDy=0;exitX=1;exitY=0.3333333333333333;exitDx=0;exitDy=0;exitPerimeter=0;" edge="1" parent="1" source="ep3fy5VUL9QXkwdNC3nI-25" target="ep3fy5VUL9QXkwdNC3nI-6">
          <mxGeometry width="50" height="50" relative="1" as="geometry">
            <mxPoint x="400" y="410" as="sourcePoint" />
            <mxPoint x="450" y="360" as="targetPoint" />
          </mxGeometry>
        </mxCell>
        <mxCell id="ep3fy5VUL9QXkwdNC3nI-35" value="" style="endArrow=none;html=1;rounded=0;entryX=0;entryY=0.5;entryDx=0;entryDy=0;exitX=1;exitY=0.3333333333333333;exitDx=0;exitDy=0;exitPerimeter=0;" edge="1" parent="1" source="ZdCM_eY7NvL7YCv6Zc3t-12" target="CgEE7nKXYf7efSVyKvS5-8">
          <mxGeometry width="50" height="50" relative="1" as="geometry">
            <mxPoint x="250" y="690" as="sourcePoint" />
            <mxPoint x="280" y="630" as="targetPoint" />
          </mxGeometry>
        </mxCell>
        <mxCell id="ep3fy5VUL9QXkwdNC3nI-36" value="" style="endArrow=none;html=1;rounded=0;entryX=0;entryY=0.5;entryDx=0;entryDy=0;" edge="1" parent="1" target="ep3fy5VUL9QXkwdNC3nI-5">
          <mxGeometry width="50" height="50" relative="1" as="geometry">
            <mxPoint x="150" y="650" as="sourcePoint" />
            <mxPoint x="375" y="525" as="targetPoint" />
          </mxGeometry>
        </mxCell>
        <mxCell id="ep3fy5VUL9QXkwdNC3nI-37" value="" style="endArrow=none;html=1;rounded=0;" edge="1" parent="1" target="ep3fy5VUL9QXkwdNC3nI-6">
          <mxGeometry width="50" height="50" relative="1" as="geometry">
            <mxPoint x="150" y="650" as="sourcePoint" />
            <mxPoint x="375" y="585" as="targetPoint" />
          </mxGeometry>
        </mxCell>
        <mxCell id="ep3fy5VUL9QXkwdNC3nI-38" value="" style="endArrow=none;html=1;rounded=0;exitX=1;exitY=0.3333333333333333;exitDx=0;exitDy=0;exitPerimeter=0;entryX=0;entryY=0.5;entryDx=0;entryDy=0;" edge="1" parent="1" source="ZdCM_eY7NvL7YCv6Zc3t-9" target="ep3fy5VUL9QXkwdNC3nI-3">
          <mxGeometry width="50" height="50" relative="1" as="geometry">
            <mxPoint x="150" y="740" as="sourcePoint" />
            <mxPoint x="365" y="728" as="targetPoint" />
          </mxGeometry>
        </mxCell>
        <mxCell id="ep3fy5VUL9QXkwdNC3nI-39" value="" style="endArrow=none;html=1;rounded=0;entryX=0;entryY=0.5;entryDx=0;entryDy=0;" edge="1" parent="1" target="ep3fy5VUL9QXkwdNC3nI-6">
          <mxGeometry width="50" height="50" relative="1" as="geometry">
            <mxPoint x="160" y="750" as="sourcePoint" />
            <mxPoint x="375" y="725" as="targetPoint" />
          </mxGeometry>
        </mxCell>
        <mxCell id="ep3fy5VUL9QXkwdNC3nI-40" value="" style="endArrow=none;html=1;rounded=0;entryX=0;entryY=0.5;entryDx=0;entryDy=0;" edge="1" parent="1" target="CgEE7nKXYf7efSVyKvS5-8">
          <mxGeometry width="50" height="50" relative="1" as="geometry">
            <mxPoint x="160" y="750" as="sourcePoint" />
            <mxPoint x="375" y="645" as="targetPoint" />
          </mxGeometry>
        </mxCell>
      </root>
    </mxGraphModel>
  </diagram>
</mxfile>
